<?xml version="1.0" encoding="utf-8"?>
<!-- Generator: Adobe Illustrator 24.0.3, SVG Export Plug-In . SVG Version: 6.00 Build 0)  -->
<svg version="1.1" id="Layer_1" xmlns="http://www.w3.org/2000/svg" xmlns:xlink="http://www.w3.org/1999/xlink" x="0px" y="0px"
	 viewBox="0 0 4560 2560" style="enable-background:new 0 0 4560 2560;" xml:space="preserve">
<style type="text/css">
	.st0{fill:#D5AE85;}
	.st1{fill:#8B5E13;}
	.st2{fill:none;}
	.st3{font-family:'ArialMT';}
	.st4{font-size:500px;}
	.st5{font-size:270px;}
	.st6{font-family:'MyriadPro-Regular';}
	.st7{font-size:150px; font-family:'MyriadPro-Regular';}
</style>
<g>
	<path class="st0" d="M112.83,441.86l4327.82-9.64c32.9-0.07,59.64,26.54,59.71,59.44l3.26,1463.84
		c0.07,32.9-26.54,59.64-59.44,59.71l-4327.82,9.64c-32.9,0.07-59.64-26.54-59.71-59.44L53.38,501.57
		C53.31,468.67,79.92,441.94,112.83,441.86z"/>
	
		<ellipse transform="matrix(1 -2.222457e-03 2.222457e-03 1 -3.5679 2.2363)" class="st1" cx="1004.42" cy="1606.48" rx="224.09" ry="223.93"/>
	
		<ellipse transform="matrix(1 -2.222457e-03 2.222457e-03 1 -3.5577 3.339)" class="st1" cx="1500.62" cy="1602.48" rx="224.09" ry="223.93"/>
	
		<ellipse transform="matrix(1 -2.222457e-03 2.222457e-03 1 -3.561 4.453)" class="st1" cx="2001.83" cy="1604.48" rx="224.09" ry="223.93"/>
	
		<ellipse transform="matrix(1 -2.222457e-03 2.222457e-03 1 -3.5619 5.5957)" class="st1" cx="2516.04" cy="1605.48" rx="224.09" ry="223.93"/>
	
		<ellipse transform="matrix(1 -2.222457e-03 2.222457e-03 1 -3.5606 6.7475)" class="st1" cx="3034.27" cy="1605.48" rx="224.09" ry="223.93"/>
	
		<ellipse transform="matrix(1 -2.222457e-03 2.222457e-03 1 -3.5594 7.8792)" class="st1" cx="3543.48" cy="1605.48" rx="224.09" ry="223.93"/>
	
		<ellipse transform="matrix(1 -2.222457e-03 2.222457e-03 1 -1.7699 2.2454)" class="st1" cx="1009.42" cy="797.48" rx="224.09" ry="223.93"/>
	
		<ellipse transform="matrix(1 -2.222457e-03 2.222457e-03 1 -1.7598 3.3481)" class="st1" cx="1505.62" cy="793.48" rx="224.09" ry="223.93"/>
	
		<ellipse transform="matrix(1 -2.222457e-03 2.222457e-03 1 -1.763 4.4621)" class="st1" cx="2006.83" cy="795.48" rx="224.09" ry="223.93"/>
	
		<ellipse transform="matrix(1 -2.222457e-03 2.222457e-03 1 -1.7639 5.6049)" class="st1" cx="2521.04" cy="796.48" rx="224.09" ry="223.93"/>
	
		<ellipse transform="matrix(1 -2.222457e-03 2.222457e-03 1 -1.7626 6.7566)" class="st1" cx="3039.27" cy="796.48" rx="224.09" ry="223.93"/>
	
		<ellipse transform="matrix(1 -2.222457e-03 2.222457e-03 1 -1.7614 7.8883)" class="st1" cx="3548.48" cy="796.48" rx="224.09" ry="223.93"/>
	<path class="st1" d="M642.85,1826h-424.7c-56.97,0-103.15-46.18-103.15-103.15V673.15C115,616.18,161.18,570,218.15,570h424.69
		C699.82,570,746,616.18,746,673.15v1049.69C746,1779.82,699.82,1826,642.85,1826z"/>
	<path class="st1" d="M4355.85,1857h-424.69c-56.97,0-103.15-46.18-103.15-103.15V704.15c0-56.97,46.18-103.15,103.15-103.15h424.69
		c56.97,0,103.15,46.18,103.15,103.15v1049.69C4459,1810.82,4412.82,1857,4355.85,1857z"/>
</g>
<rect x="292.44" y="992.04" class="st2" width="276.56" height="411.96"/>
<text transform="matrix(1 0 0 1 292.4448 1347.0327)" class="st3 st4">0</text>
<rect x="4005.44" y="1018.04" class="st2" width="276.56" height="411.96"/>
<text transform="matrix(1 0 0 1 4005.4448 1373.0327)" class="st3 st4">0</text>
<text transform="matrix(1 0 0 1 0 221.8269)" class="st3 st5">Player Two</text>
<text transform="matrix(1 0 0 1 53.3799 2482.8799)" class="st3 st5">Player One</text>
<rect x="845.4" y="248.93" class="st2" width="274.88" height="190.68"/>
<g>
	<text transform="matrix(1 0 0 1 982.8441 388.4091)" class="st6">4</text>
	<text transform="matrix(1 0 0 1 982.8439 2189.3088)" class="st6">4</text>
	<text transform="matrix(1 0 0 1 1465.1901 2189.3091)" class="st6">4</text>
	<text transform="matrix(1 0 0 1 1980.5901 2189.3096)" class="st6">4</text>
	<text transform="matrix(1 0 0 1 2516.0366 2189.3088)" class="st6">4</text>
	<text transform="matrix(1 0 0 1 3039.2681 2189.3091)" class="st6">4</text>
	<text transform="matrix(1 0 0 1 3548.479 2189.3101)" class="st6">4</text>
	<text transform="matrix(1 0 0 1 1500.6235 388.4088)" class="st6">4</text>
	<text transform="matrix(1 0 0 1 1980.59 388.4089)" class="st6">4</text>
	<text transform="matrix(1 0 0 1 2516.0364 388.4093)" class="st6">4</text>
	<text transform="matrix(1 0 0 1 3034.2678 388.4089)" class="st6">4</text>
	<text transform="matrix(1 0 0 1 3543.479 388.4095)" class="st6">4</text>
</g>
</svg>
